<?xml version="1.0" standalone="no"?><!DOCTYPE svg PUBLIC "-//W3C//DTD SVG 1.1//EN" "http://www.w3.org/Graphics/SVG/1.1/DTD/svg11.dtd"><svg t="1731262133513" class="icon" viewBox="0 0 1024 1024" version="1.1" xmlns="http://www.w3.org/2000/svg" p-id="1125" xmlns:xlink="http://www.w3.org/1999/xlink" width="200" height="200"><path d="M840.6 638.1c-10.6-6.3-26.9-1.9-33.7 11.8-10.1 23.7-28.4 58.9-61 93.8-26.7 28.6-53 46.4-68.6 55.8-49.1 29.6-104.4 45.5-159.6 46.3-62.4 0.8-123-17.4-173.8-50.1-52.7-33.8-81.4-75-89.6-87.4-13-19.5-21.5-37.5-27-50.8 32.8 13.1 61.1 17.1 79.9 18.3 25 1.7 58.9 4 95.1-13.4 13.2-6.4 32.1-15.7 46.8-36.9 22.7-32.7 17.5-68 16.7-73-1.6-9.6-7.2-35.2-29.2-55.2-5.8-5.3-17.2-15.5-34.5-19.2-14.1-3-21.7 0.5-40.8 2.6-24.1 2.6-42.9 0.5-53.2-0.7-20.1-2.3-48.8-5.6-75.6-25.4-12.1-8.9-20.3-18.5-25.4-25.4 6.7-24.9 19.9-62.3 47.4-101.2 5.4-7.7 30.6-42.6 75.8-76 20.3-15 54.1-39.5 104.3-53.4 11.3-3.1 70.1-18.7 144.3-2.4 72.8 15.9 122.8 54.2 148.8 78.1 4.6 4.2 4.6 11.4 0.1 15.7l-53.4 51.3c-4 3.8-10.2 4-14.4 0.5-41.3-34.4-93.6-53.4-147.8-52-52 1.4-100.1 22.1-137.3 53.2-26.7 22.3-47.8 50.4-62.2 82.1-4.9 10.8-1.1 23.8 9.2 29.7 1.9 1.1 3.9 1.9 6 2.4 0.5 0.1 0.9 0.2 1.4 0.3 10.4 2.1 20.8-3.7 25.3-13.4 10.4-22.2 25-41.9 43.3-58.1 32.3-28.7 74.1-44.8 116.9-45.6 9-0.2 45.5-0.1 86.4 20.3 20 10 35.5 22.1 47.1 33.2 11.6 11.1 30.8 11.2 42.3-0.7 28.4-29.2 56.7-58.4 85-87.7 14.9-15.3 14.4-39.7-1-54.5-35.2-33.9-96.8-80.6-184.4-98.8-78.6-16.3-143.2-2.3-167.2 3.9-28.4 7.3-71.8 22.2-116.9 53.4-45.1 31.2-71.5 64.7-85.8 83.2-26.4 34-43.2 66.4-53.9 90.7-32.5 8.5-60.9 28.4-78.9 56.8-26.9 42.4-23.8 90.2-8.9 123.2 4.8 10.7 12.6 22.8 24.3 35.5 17.9 19.5 40.5 34 66.1 43.1 7.6 23.9 20.9 57.2 44.8 92.3 10.6 15.6 42.8 60.3 100.5 98.5 64.1 42.5 134.9 63.2 203 62.7 95.6-0.8 162.9-40.9 187.6-56.1 41.3-25.4 67.5-52.9 76.8-63 38.2-41.7 58.2-84.2 68.6-111.6 3-10.9-1.2-22.1-9.5-27.1zM114.1 502.6c1.7-34.4 33.9-56.5 40.4-60.8 14.2 19.7 40.9 49.7 83.2 67.5 45.3 19.1 92.8 17.5 109.2 16.9 22.1-0.7 40.1-3.9 54.1 8.1 11.6 10 17 27.6 14.6 43.4-2.5 17-13.4 27.4-17.1 30.8-18.1 16.8-41.6 17.5-71.1 17.8-41.9 0.5-77.2-8.2-104.1-17.8-20.2-7.3-28.3-9.3-53.4-22.4-27-14.1-57.7-46.1-55.8-83.5z" p-id="1126" fill="#ed2064"></path><path d="M650.5 639.1c3.9-3.7 9.1-5.8 14.5-5.4 5.4 0.4 10.6 2.5 14.7 6.1 3.6 3.2 6.2 7.3 7.5 11.8 1.9 6.5 0.3 13.5-3.9 18.7-10.6 13.2-22.9 25.1-36.6 35.4-38.8 29.1-87.3 42.3-134.6 41.8-38.1-0.4-75.4-10.3-109-28.6-5.6-3-9.8-8-11.7-14-3.1-10-0.5-20.7 6.4-26.7 6.2-5.5 16-7.2 25.3-3.9 1.3 0.5 2.6 1.1 3.9 1.8 19.9 11.5 41.9 19 64.7 22 21.1 2.8 43.5 1.8 66.2-3.8 18.1-4.5 36.6-11.8 54.5-23.3 15.4-9.9 26.3-20.7 38.2-31.9zM879.8 429.4H636.9c-4.2 0-8.5 0.6-12.5 1.7-41 11.6-69.8 49.5-69.2 92.1 0.6 41.8 29.2 78.4 69.4 89.6 3.9 1.1 7.9 1.7 12 1.7l241.1 2.4c6 0 12-1 17.5-3.2 36-14.6 60.4-49.1 61.6-87.9 1.2-39.8-22.4-76.5-58.7-92.6-5.8-2.6-12-3.8-18.3-3.8zM865 568.8H649.6c-21.7 0-40.9-14.9-45.2-36.1-0.6-3.1-1-6.3-1-9.5s0.3-6.4 1-9.5c4.3-21.2 23.5-36.1 45.2-36.1h215.2c24.6 0 45.4 19.2 46.2 43.7v1.9c0 8.6-2.5 16.9-6.8 24-8.2 13.6-23.3 21.6-39.2 21.6z" p-id="1127" fill="#ed2064"></path></svg>