<svg t="1740806391516" class="icon" viewBox="0 0 1024 1024" version="1.1" xmlns="http://www.w3.org/2000/svg" p-id="1122" width="256" height="256"><path d="M408.693569 541.858891v226.474356c0 19.861494-7.997917 27.192919-27.726113 26.926321-31.991669-0.266597-64.116636 0.133299-96.108305 0-19.061703 0-27.192919-8.131216-27.192918-26.793023V260.065608c0-5.998438 0.266597-12.130174 1.86618-17.728717 2.399375-8.264514 8.131216-13.463161 17.46212-13.46316 36.923718 0 73.714137-0.266597 110.637854 0 13.863056 0 21.461078 8.931008 21.461078 24.660245 0 35.72403-0.266597 71.314762-0.399896 106.905493v45.188232c93.442333 11.463681 165.556886-28.126009 187.817756-126.633689 2.399375-10.530591 3.332466-21.327779 4.798751-31.991669 1.599583-12.53007 7.864619-18.261911 20.527987-18.395209 36.790419-0.133299 73.714137-0.266597 110.504556-0.133299 16.928925 0 26.526425 9.597501 24.393648 26.526425-13.463161 112.637334-65.982817 199.681333-168.489456 253.13408-50.653476 26.393127-105.172611 33.724551-161.291331 33.457954h-18.128612zM598.110909 680.08956v-91.442853c0-16.928925 6.131737-23.060661 23.060661-23.060662l117.83598-0.399896c21.594376 0 27.326217 5.998438 27.326217 27.992711v173.154907c0 20.661286-8.931008 28.925801-29.325696 28.792502-38.123405-0.266597-76.113512-0.133299-114.236918 0.133299-16.529029 0-24.260349-6.79823-24.260349-23.727155v-91.442853h-0.533194z" fill="#2da8e9" p-id="1123"></path></svg>