<?xml version="1.0" encoding="UTF-8"?>
<svg xmlns="http://www.w3.org/2000/svg" version="1.1" viewBox="0 0 1024 1024">
  <defs>
    <style>
      .cls-1 {
        display: none;
      }

      .cls-2 {
        fill-rule: evenodd;
      }
    </style>
  </defs>
  <!-- Generator: Adobe Illustrator 28.6.0, SVG Export Plug-In . SVG Version: 1.2.0 Build 709)  -->
  <g>
    <g id="_图层_1" data-name="图层_1" class="cls-1">
      <g>
        <g id="logo">
          <path class="cls-2" d="M781.5,459.6c-8.7-5.2-22.1-1.6-27.7,9.7-8.3,19.5-23.3,48.4-50,77.1-21.9,23.5-43.5,38.1-56.3,45.9-40.3,24.4-85.7,37.5-130.9,38-51.2.7-100.8-14.3-142.5-41.2-43.2-27.8-66.7-61.7-73.5-71.8-10.7-16.1-17.6-30.8-22.1-41.8,26.9,10.8,50.1,14,65.5,15.1,20.5,1.4,48.3,3.3,78-11,10.9-5.2,26.3-12.9,38.4-30.3,18.6-26.9,14.3-55.9,13.7-60-1.3-7.9-5.9-28.9-23.9-45.4-4.7-4.3-14.1-12.7-28.3-15.8-11.5-2.5-17.8.4-33.5,2.1-19.8,2.2-35.1.4-43.6-.6-16.5-1.9-40-4.6-62-20.9-9.9-7.3-16.6-15.2-20.9-20.9,5.5-20.5,16.3-51.2,38.9-83.2,4.5-6.3,25.1-35.1,62.1-62.5,16.6-12.3,44.3-32.4,85.5-43.9,9.3-2.6,57.5-15.3,118.3-2,59.7,13.1,100.7,44.6,122,64.2,3.7,3.4,3.8,9.3.1,12.9-14.6,14.1-29.2,28.1-43.8,42.2-3.2,3.1-8.3,3.3-11.8.4-33.9-28.3-76.8-43.9-121.2-42.8-42.7,1.1-82.1,18.2-112.6,43.8-21.9,18.4-39.2,41.4-51,67.6-4,8.9-.9,19.5,7.5,24.4,1.5.9,3.2,1.6,4.9,2,.4.1.8.2,1.1.3,8.5,1.7,17-3.1,20.7-11,8.5-18.2,20.5-34.5,35.5-47.8,26.5-23.6,60.8-36.9,95.9-37.5,7.3-.1,37.3-.1,70.9,16.7,16.4,8.2,29.1,18.2,38.6,27.3,9.5,9.1,25.3,9.2,34.7-.6,23.2-24,46.5-48.1,69.7-72.1,12.2-12.6,11.8-32.7-.8-44.8-28.9-27.8-79.3-66.3-151.2-81.2-64.5-13.4-117.4-1.9-137.1,3.2-23.3,6-58.9,18.2-95.9,44-37,25.7-58.6,53.2-70.4,68.4-21.6,28-35.5,54.6-44.2,74.6-26.6,7-49.9,23.4-64.7,46.7-22.1,34.8-19.5,74.2-7.3,101.3,4,8.8,10.3,18.8,19.9,29.2,14.7,16,33.2,28,54.2,35.4,6.2,19.7,17.1,47,36.7,75.9,8.7,12.8,35.1,49.6,82.4,81,52.6,35,110.6,52,166.4,51.5,78.4-.6,133.6-33.7,153.8-46.2,33.9-20.9,55.4-43.5,63-51.8,31.3-34.3,47.7-69.2,56.3-91.7,2.5-9-1-18.2-7.8-22.2h0ZM185.8,348.2c1.4-28.3,27.8-46.5,33.1-50,11.7,16.2,33.5,40.9,68.2,55.5,37.2,15.7,76.1,14.4,89.6,13.9,18.2-.6,32.9-3.2,44.3,6.7,9.5,8.2,13.9,22.7,12,35.7-2.1,14-11,22.5-14,25.3-14.8,13.9-34.1,14.4-58.3,14.7-34.3.4-63.3-6.7-85.3-14.7-16.5-6-23.2-7.7-43.8-18.4-22.1-11.6-47.3-37.9-45.8-68.7h0Z"/>
          <path class="cls-2" d="M625.6,460.4c3.2-3,7.5-4.8,11.9-4.4s8.7,2,12.1,5c3,2.6,5.1,6,6.1,9.7,1.5,5.3.3,11.1-3.2,15.4-8.7,10.9-18.8,20.6-30,29.1-31.8,23.9-71.6,34.8-110.4,34.4-31.2-.3-61.8-8.5-89.4-23.5-4.6-2.5-8.1-6.6-9.6-11.5-2.6-8.2-.5-17,5.2-22,5.1-4.5,13.1-5.9,20.8-3.2,1.1.4,2.2.9,3.2,1.5,16.4,9.4,34.3,15.6,53,18.1,17.3,2.3,35.7,1.4,54.3-3.2,14.9-3.7,30-9.7,44.7-19.1,12.6-8.1,21.6-17,31.3-26.2h0Z"/>
          <path class="cls-2" d="M813.6,288h-199.2c-3.5,0-6.9.5-10.3,1.4-33.6,9.5-57.2,40.7-56.7,75.7.5,34.4,23.9,64.4,57,73.7,3.2.9,6.5,1.4,9.8,1.4,65.9.7,131.8,1.3,197.7,2,4.9,0,9.8-.8,14.4-2.7,29.5-12,49.6-40.4,50.5-72.3,1-32.8-18.3-62.9-48.2-76.1-4.7-2.1-9.9-3.1-15-3.1h0ZM801.5,402.6h-176.6c-17.8,0-33.5-12.3-37.1-29.7-.5-2.5-.8-5.2-.8-7.8s.3-5.3.8-7.8c3.5-17.4,19.3-29.7,37.1-29.7h176.5c20.2,0,37.2,15.8,37.9,36,0,.5,0,1,0,1.6,0,7.1-2.1,13.9-5.6,19.7-6.7,11.2-19.1,17.8-32.2,17.8h0Z"/>
        </g>
        <g id="HUG">
          <path class="cls-2" d="M745.5,744.5c21.8-1.5,43.8.2,65.5,4.9,8.6,1.9,14.7,9.3,15,18.1,0,2.9,0,5.8,0,8.6,0,2.1-.2,4.2-.3,6.2-.8,10.6-10.9,17.9-21.3,15.7-18.9-4.1-38-5.4-56.8-3.5-24.4,2.4-40.8,10.8-47.8,18-13.9,14.1-17,33.8-16.8,46.7.3,17.6,5.7,33.1,16.7,43.8,1.8,1.7,3.6,3.3,5.6,4.7,2.3,1.7,5.3,3.3,8.9,4.8,15.4,6.8,32.6,8.6,49.2,5.8l4.8-.8c4.8,0,8.6-3.8,8.6-8.6v-16.1c0-4.8-3.8-8.6-8.6-8.6h-18.2c-4.8,0-8.6-3.8-8.6-8.6v-30.7c0-4.8,3.8-8.6,8.6-8.6h68.2c4.8,0,8.6,3.8,8.6,8.6v70.1c0,25.6-18.1,47.8-43.3,52.5-.2,0-.3,0-.5,0-35.2,6.5-65.8,3.9-83.6-2.8-1.5-.5-2.9-1.1-4.4-1.6-23.7-8-34.2-19.8-47.7-37.2-24.3-41.7-22.8-88.7,4.7-133.2,7.7-11.7,17.3-21.7,28.8-29.5,10.3-7,34.7-16.7,64.6-18.8h0Z"/>
          <path class="cls-2" d="M472.4,759.5v120.1c0,16.9,10.4,32.3,26.3,37.9,4.2,1.5,8.7,2.2,13.3,2.2,9.3,0,18-3.5,24.9-9.2,9.5-7.8,14.7-19.6,14.7-31.9v-119.1c0-7.1,5.8-12.9,12.9-12.9h26.3c7.1,0,12.9,5.8,12.9,12.9v117.5c0,36.6-21.2,70.2-54.7,84.9-11.4,5-24,7.8-37,7.8-40.9,0-76.6-27-88.5-65.1-2.2-7.1-3.2-14.6-3.2-22.1v-123c0-7.1,5.8-12.9,12.9-12.9h26.3c7.1,0,12.9,5.8,12.9,12.9h0Z"/>
          <path class="cls-2" d="M205.8,746.6h34.7c4.9,0,8.8,3.9,8.8,8.8v67.9c0,4.8,3.9,8.8,8.8,8.8h65.8c4.9,0,8.8-3.9,8.8-8.8v-67.9c0-4.8,3.9-8.8,8.8-8.8h34.5c4.9,0,8.8,3.9,8.8,8.8v203.4c0,4.8-3.9,8.8-8.8,8.8h-34.5c-4.9,0-8.8-3.9-8.8-8.8v-70c0-4.8-3.9-8.8-8.8-8.8h-65.8c-4.9,0-8.8,3.9-8.8,8.8v70c0,4.8-3.9,8.8-8.8,8.8h-34.7c-4.8,0-8.7-3.8-8.8-8.6-.6-35.8-.9-71.2-.9-107.1,0-32.4.3-64.3.9-96.6,0-4.8,4-8.6,8.8-8.6h0Z"/>
        </g>
      </g>
    </g>
    <g id="_图层_1_x5F_复制" data-name="图层_1_x5F_复制">
      <g id="HUG-2" data-name="HUG" class="cls-1">
        <path class="cls-2" d="M796.7,970.7c26.5-1.9,53.4.2,79.8,6,10.4,2.3,18,11.3,18.3,22,.1,3.5.1,7,0,10.5,0,2.5-.2,5-.4,7.6-1,12.9-13.3,21.8-26,19.1-23-5-46.3-6.5-69.2-4.2-29.8,3-49.7,13.1-58.3,21.8-17,17.2-20.8,41-20.5,56.8.4,21.4,7,40.3,20.3,53.2,2.1,2.1,4.4,4,6.8,5.7,2.8,2,6.5,4,10.9,5.9,18.8,8.2,39.7,10.5,60,7.1l5.9-1c5.8,0,10.5-4.7,10.5-10.5v-19.6c0-5.8-4.7-10.5-10.5-10.5h-22.2c-5.8,0-10.5-4.7-10.5-10.5v-37.4c0-5.8,4.7-10.5,10.5-10.5h83.2c5.8,0,10.5,4.7,10.5,10.5v85.3c0,31.2-22.1,58.2-52.8,63.9-.2,0-.4,0-.5,0-42.9,7.8-80.3,4.8-101.9-3.3-1.8-.7-3.6-1.3-5.4-1.9-28.9-9.7-41.7-24.1-58.1-45.3-29.7-50.7-27.8-107.9,5.8-162,9.4-14.2,21.1-26.4,35.1-35.9,12.6-8.5,42.3-20.2,78.8-22.8h0Z"/>
        <path class="cls-2" d="M463.7,989v146c0,20.5,12.6,39.3,32.1,46,5.1,1.8,10.6,2.7,16.2,2.7,11.3-.1,22-4.2,30.4-11.2,11.5-9.5,17.9-23.8,17.9-38.8v-144.8c0-8.7,7-15.7,15.7-15.7h32.1c8.7,0,15.7,7,15.7,15.7v142.9c0,44.5-25.8,85.4-66.7,103.3-13.9,6.1-29.2,9.5-45.2,9.5-49.9,0-93.4-32.9-107.9-79.1-2.7-8.7-3.9-17.8-3.9-26.9v-149.6c0-8.7,7-15.7,15.7-15.7h32.1c8.7,0,15.7,7,15.7,15.7h0Z"/>
        <path class="cls-2" d="M138.6,973.3h42.3c5.9,0,10.7,4.8,10.7,10.7v82.6c0,5.9,4.8,10.7,10.7,10.7h80.3c5.9,0,10.7-4.8,10.7-10.7v-82.6c0-5.9,4.8-10.7,10.7-10.7h42.1c5.9,0,10.7,4.8,10.7,10.7v247.4c0,5.9-4.8,10.7-10.7,10.7h-42.1c-5.9,0-10.7-4.8-10.7-10.7v-85.1c0-5.9-4.8-10.7-10.7-10.7h-80.3c-5.9,0-10.7,4.8-10.7,10.7v85.1c0,5.9-4.8,10.7-10.7,10.7h-42.3c-5.8,0-10.6-4.7-10.7-10.5-.8-43.6-1.1-86.5-1.1-130.2,0-39.4.4-78.2,1.1-117.5,0-5.8,4.9-10.5,10.7-10.5h0Z"/>
      </g>
      <g id="logo-2" data-name="logo">
        <path class="cls-2" d="M840.6,638.1c-10.6-6.3-26.9-1.9-33.7,11.8-10.1,23.7-28.4,58.9-61,93.8-26.7,28.6-53,46.4-68.6,55.8-49.1,29.6-104.4,45.5-159.6,46.3-62.4.8-123-17.4-173.8-50.1-52.7-33.8-81.4-75-89.6-87.4-13-19.5-21.5-37.5-27-50.8,32.8,13.1,61.1,17.1,79.9,18.3,25,1.7,58.9,4,95.1-13.4,13.2-6.4,32.1-15.7,46.8-36.9,22.7-32.7,17.5-68,16.7-73-1.6-9.6-7.2-35.2-29.2-55.2-5.8-5.3-17.2-15.5-34.5-19.2-14.1-3-21.7.5-40.8,2.6-24.1,2.6-42.9.5-53.2-.7-20.1-2.3-48.8-5.6-75.6-25.4-12.1-8.9-20.3-18.5-25.4-25.4,6.7-24.9,19.9-62.3,47.4-101.2,5.4-7.7,30.6-42.6,75.8-76,20.3-15,54.1-39.5,104.3-53.4,11.3-3.1,70.1-18.7,144.3-2.4,72.8,15.9,122.8,54.2,148.8,78.1,4.6,4.2,4.6,11.4.1,15.7-17.8,17.1-35.6,34.2-53.4,51.3-4,3.8-10.2,4-14.4.5-41.3-34.4-93.6-53.4-147.8-52-52,1.4-100.1,22.1-137.3,53.2-26.7,22.3-47.8,50.4-62.2,82.1-4.9,10.8-1.1,23.8,9.2,29.7,1.9,1.1,3.9,1.9,6,2.4.5.1.9.2,1.4.3,10.4,2.1,20.8-3.7,25.3-13.4,10.4-22.2,25-41.9,43.3-58.1,32.3-28.7,74.1-44.8,116.9-45.6,9-.2,45.5-.1,86.4,20.3,20,10,35.5,22.1,47.1,33.2,11.6,11.1,30.8,11.2,42.3-.7,28.4-29.2,56.7-58.4,85-87.7,14.9-15.3,14.4-39.7-1-54.5-35.2-33.9-96.8-80.6-184.4-98.8-78.6-16.3-143.2-2.3-167.2,3.9-28.4,7.3-71.8,22.2-116.9,53.4-45.1,31.2-71.5,64.7-85.8,83.2-26.4,34-43.2,66.4-53.9,90.7-32.5,8.5-60.9,28.4-78.9,56.8-26.9,42.4-23.8,90.2-8.9,123.2,4.8,10.7,12.6,22.8,24.3,35.5,17.9,19.5,40.5,34,66.1,43.1,7.6,23.9,20.9,57.2,44.8,92.3,10.6,15.6,42.8,60.3,100.5,98.5,64.1,42.5,134.9,63.2,203,62.7,95.6-.8,162.9-40.9,187.6-56.1,41.3-25.4,67.5-52.9,76.8-63,38.2-41.7,58.2-84.2,68.6-111.6,3-10.9-1.2-22.1-9.5-27.1h0ZM114.1,502.6c1.7-34.4,33.9-56.5,40.4-60.8,14.2,19.7,40.9,49.7,83.2,67.5,45.3,19.1,92.8,17.5,109.2,16.9,22.1-.7,40.1-3.9,54.1,8.1,11.6,10,17,27.6,14.6,43.4-2.5,17-13.4,27.4-17.1,30.8-18.1,16.8-41.6,17.5-71.1,17.8-41.9.5-77.2-8.2-104.1-17.8-20.2-7.3-28.3-9.3-53.4-22.4-27-14.1-57.7-46.1-55.8-83.5h0Z"/>
        <path class="cls-2" d="M650.5,639.1c3.9-3.7,9.1-5.8,14.5-5.4,5.4.4,10.6,2.5,14.7,6.1,3.6,3.2,6.2,7.3,7.5,11.8,1.9,6.5.3,13.5-3.9,18.7-10.6,13.2-22.9,25.1-36.6,35.4-38.8,29.1-87.3,42.3-134.6,41.8-38.1-.4-75.4-10.3-109-28.6-5.6-3-9.8-8-11.7-14-3.1-10-.5-20.7,6.4-26.7,6.2-5.5,16-7.2,25.3-3.9,1.3.5,2.6,1.1,3.9,1.8,19.9,11.5,41.9,19,64.7,22,21.1,2.8,43.5,1.8,66.2-3.8,18.1-4.5,36.6-11.8,54.5-23.3,15.4-9.9,26.3-20.7,38.2-31.9h0Z"/>
        <path class="cls-2" d="M879.8,429.4h-242.9c-4.2,0-8.5.6-12.5,1.7-41,11.6-69.8,49.5-69.2,92.1.6,41.8,29.2,78.4,69.4,89.6,3.9,1.1,7.9,1.7,12,1.7,80.4.8,160.7,1.6,241.1,2.4,6,0,12-1,17.5-3.2,36-14.6,60.4-49.1,61.6-87.9,1.2-39.8-22.4-76.5-58.7-92.6-5.8-2.6-12-3.8-18.3-3.8h0ZM865,568.8h-215.4c-21.7,0-40.9-14.9-45.2-36.1-.6-3.1-1-6.3-1-9.5s.3-6.4,1-9.5c4.3-21.2,23.5-36.1,45.2-36.1h215.2c24.6,0,45.4,19.2,46.2,43.7,0,.6,0,1.3,0,1.9,0,8.6-2.5,16.9-6.8,24-8.2,13.6-23.3,21.6-39.2,21.6h0Z"/>
      </g>
    </g>
  </g>
</svg>