<?xml version="1.0" encoding="UTF-8"?>
<svg xmlns="http://www.w3.org/2000/svg" viewBox="0 0 1024 1024">
  <defs>
    <style>
      .cls-1 {
        fill-rule: evenodd;
      }
    </style>
  </defs>
  <g id="logo">
    <path class="cls-1" d="M781.5,459.59c-8.69-5.22-22.08-1.57-27.67,9.74-8.28,19.47-23.31,48.42-50.03,77.13-21.91,23.54-43.49,38.12-56.29,45.86-40.28,24.38-85.65,37.45-130.87,38.04-51.17.67-100.83-14.34-142.49-41.16-43.18-27.8-66.74-61.68-73.48-71.85-10.66-16.07-17.64-30.81-22.15-41.77,26.87,10.75,50.1,14.03,65.49,15.08,20.51,1.4,48.27,3.3,77.99-11.03,10.85-5.23,26.33-12.93,38.35-30.31,18.59-26.89,14.33-55.9,13.67-60-1.29-7.91-5.94-28.93-23.93-45.39-4.74-4.33-14.13-12.72-28.31-15.78-11.54-2.49-17.78.38-33.47,2.1-19.78,2.17-35.14.38-43.63-.6-16.45-1.91-39.98-4.58-61.99-20.86-9.9-7.32-16.64-15.2-20.85-20.85,5.46-20.45,16.29-51.21,38.85-83.25,4.46-6.33,25.1-35.05,62.12-62.47,16.65-12.34,44.33-32.45,85.53-43.9,9.29-2.58,57.49-15.34,118.33-2,59.72,13.1,100.7,44.57,122.02,64.24,3.74,3.45,3.78,9.34.12,12.87-14.6,14.06-29.2,28.11-43.79,42.17-3.25,3.13-8.33,3.33-11.79.44-33.87-28.32-76.76-43.95-121.22-42.76-42.67,1.14-82.07,18.2-112.57,43.78-21.9,18.36-39.21,41.44-51,67.55-4,8.86-.92,19.54,7.51,24.4,1.52.88,3.16,1.56,4.88,2.01.38.1.76.19,1.14.26,8.55,1.71,17.03-3.08,20.74-10.98,8.55-18.22,20.54-34.46,35.49-47.8,26.45-23.6,60.79-36.87,95.9-37.52,7.35-.14,37.33-.12,70.88,16.68,16.39,8.21,29.13,18.17,38.64,27.3s25.27,9.19,34.7-.56c23.25-24.03,46.49-48.06,69.74-72.08,12.19-12.6,11.78-32.68-.85-44.85-28.88-27.84-79.35-66.3-151.18-81.23-64.49-13.41-117.39-1.87-137.13,3.23-23.31,6.03-58.86,18.24-95.85,43.95-36.98,25.69-58.6,53.2-70.35,68.39-21.65,27.99-35.46,54.58-44.21,74.62-26.62,7.03-49.92,23.35-64.72,46.69-22.08,34.84-19.5,74.18-7.29,101.31,3.97,8.81,10.32,18.76,19.89,29.2,14.7,16.04,33.24,27.99,54.2,35.44,6.24,19.68,17.15,47,36.75,75.91,8.7,12.84,35.13,49.58,82.43,81.02,52.59,34.95,110.6,51.98,166.43,51.54,78.43-.62,133.58-33.67,153.83-46.16,33.89-20.9,55.37-43.47,62.98-51.82,31.29-34.33,47.72-69.21,56.29-91.73,2.46-8.99-1-18.18-7.77-22.25ZM185.77,348.19c1.39-28.29,27.83-46.49,33.09-49.96,11.68,16.22,33.5,40.89,68.24,55.54,37.17,15.67,76.1,14.36,89.57,13.9,18.16-.61,32.91-3.23,44.33,6.67,9.49,8.22,13.93,22.7,12,35.67-2.08,13.96-11,22.53-14,25.33-14.83,13.85-34.08,14.38-58.33,14.67-34.34.4-63.32-6.72-85.33-14.67-16.53-5.97-23.17-7.67-43.78-18.44-22.11-11.56-47.3-37.91-45.78-68.7Z"/>
    <path class="cls-1" d="M625.6,460.41c3.2-3.03,7.5-4.75,11.9-4.44s8.68,2.03,12.09,5.03c2.98,2.61,5.07,6,6.14,9.71,1.54,5.32.27,11.07-3.19,15.39-8.72,10.86-18.75,20.63-30.05,29.11-31.84,23.89-71.59,34.82-110.41,34.41-31.24-.33-61.8-8.51-89.35-23.52-4.56-2.48-8.06-6.59-9.6-11.55-2.57-8.24-.45-16.99,5.22-21.99,5.12-4.51,13.09-5.89,20.78-3.18,1.1.39,2.16.9,3.17,1.49,16.35,9.44,34.34,15.59,53.03,18.08,17.28,2.3,35.65,1.44,54.32-3.16,14.86-3.66,30.02-9.72,44.66-19.13,12.64-8.13,21.58-17.05,31.3-26.25Z"/>
    <path class="cls-1" d="M813.64,287.96h-199.19c-3.47,0-6.94.46-10.28,1.41-33.64,9.53-57.2,40.69-56.73,75.73.46,34.35,23.91,64.45,56.95,73.7,3.2.9,6.51,1.36,9.83,1.39,65.91.66,131.81,1.32,197.72,1.98,4.92.05,9.81-.81,14.37-2.66,29.52-11.98,49.57-40.39,50.52-72.32.97-32.75-18.33-62.88-48.15-76.12-4.73-2.1-9.86-3.1-15.03-3.1ZM801.54,402.62h-176.64c-17.79,0-33.53-12.28-37.06-29.71-.51-2.54-.78-5.16-.78-7.82s.27-5.28.78-7.82c3.53-17.43,19.28-29.71,37.06-29.71h176.47c20.18,0,37.25,15.77,37.92,35.95.02.52.02,1.05.02,1.58-.06,7.11-2.07,13.89-5.6,19.74-6.74,11.19-19.1,17.78-32.16,17.78Z"/>
  </g>
  <g id="HUG">
    <path class="cls-1" d="M745.49,744.51c21.77-1.54,43.76.19,65.45,4.92,8.56,1.87,14.74,9.32,15.03,18.08.09,2.88.1,5.75.02,8.64-.06,2.08-.17,4.15-.32,6.22-.78,10.62-10.91,17.92-21.32,15.67-18.9-4.09-37.99-5.36-56.78-3.49-24.42,2.44-40.77,10.81-47.81,17.96-13.92,14.14-17.04,33.75-16.82,46.67.3,17.59,5.7,33.14,16.68,43.78,1.76,1.71,3.64,3.28,5.6,4.72,2.26,1.65,5.35,3.3,8.9,4.85,15.44,6.76,32.58,8.64,49.2,5.83l4.81-.81c4.76,0,8.61-3.85,8.61-8.61v-16.14c0-4.76-3.85-8.61-8.61-8.61h-18.22c-4.76,0-8.61-3.85-8.61-8.61v-30.73c0-4.76,3.85-8.61,8.61-8.61h68.25c4.76,0,8.61,3.85,8.61,8.61v70.11c0,25.63-18.13,47.84-43.33,52.54-.15.03-.3.06-.45.08-35.15,6.45-65.82,3.92-83.6-2.75-1.47-.55-2.94-1.09-4.42-1.59-23.67-8-34.2-19.83-47.65-37.23-24.32-41.69-22.82-88.72,4.74-133.2,7.69-11.69,17.32-21.7,28.79-29.53,10.3-7.03,34.72-16.65,64.63-18.76Z"/>
    <path class="cls-1" d="M472.39,759.49v120.07c0,16.87,10.36,32.3,26.29,37.86,4.22,1.47,8.72,2.25,13.32,2.2,9.29-.09,18.02-3.49,24.94-9.18,9.46-7.79,14.67-19.61,14.67-31.87v-119.08c0-7.12,5.78-12.9,12.9-12.9h26.32c7.12,0,12.9,5.78,12.9,12.9v117.47c0,36.58-21.19,70.2-54.68,84.91-11.41,5.01-23.96,7.78-37.04,7.78-40.88,0-76.57-27.04-88.49-65.08-2.24-7.14-3.23-14.61-3.23-22.09v-123c0-7.12,5.78-12.9,12.9-12.9h26.32c7.12,0,12.9,5.78,12.9,12.9Z"/>
    <path class="cls-1" d="M205.84,746.6h34.7c4.85,0,8.79,3.93,8.79,8.79v67.9c0,4.85,3.93,8.79,8.79,8.79h65.82c4.85,0,8.79-3.93,8.79-8.79v-67.9c0-4.85,3.93-8.79,8.79-8.79h34.55c4.85,0,8.79,3.93,8.79,8.79v203.41c0,4.85-3.93,8.79-8.79,8.79h-34.55c-4.85,0-8.79-3.93-8.79-8.79v-69.99c0-4.85-3.93-8.79-8.79-8.79h-65.82c-4.85,0-8.79,3.93-8.79,8.79v69.99c0,4.85-3.93,8.79-8.79,8.79h-34.7c-4.79,0-8.7-3.85-8.79-8.64-.63-35.82-.92-71.16-.89-107.07.03-32.4.32-64.32.89-96.64.08-4.79,4-8.64,8.79-8.64Z"/>
  </g>
</svg>